<svg width="50" height="50" viewBox="0 0 50 50" fill="none" xmlns="http://www.w3.org/2000/svg">
<path d="M33.789 9.73368C31.847 8.00626 29.9879 6.35253 29.5756 5.96257C28.9174 5.33236 28.6408 4.99561 28.3697 5.00004C28.0746 5.00487 27.7861 5.41387 27.0195 6.28859C26.4573 6.93901 25.56 7.94845 24.8288 8.771C24.6505 8.97155 24.4821 9.16099 24.3308 9.3314C23.6655 10.0592 22.6178 11.2309 21.8075 12.1371C21.6633 12.2983 21.5267 12.4511 21.401 12.5916C20.5691 13.5213 17.6875 16.7211 14.9988 19.6915C12.3101 22.6739 10.0916 25.1855 10.0675 25.2821C10.0193 25.4632 10.8874 26.3084 12.6959 27.866C13.2626 28.349 13.9981 29.0011 14.3357 29.3029C14.6733 29.6048 16.1442 30.8243 17.6151 32.0076C19.5081 33.5291 20.34 34.1328 20.4606 34.0603C20.7861 33.8792 22.4861 32.1646 22.3776 32.1284C21.7989 31.9352 20.5088 30.9934 19.6166 30.0999C18.7364 29.2305 18.435 28.8199 18.0613 28.0592C17.4584 26.7914 17.2775 26.079 17.2775 24.8353C17.2775 23.5192 17.579 22.4928 18.2662 21.4544C18.8329 20.5971 29.1295 10.237 29.4068 10.237C29.5756 10.237 30.938 11.3841 36.448 16.214C40.246 19.5345 41.7651 20.9593 42.1389 21.5631C42.38 21.9615 42.3921 22.0702 42.3077 23.8693C42.2715 24.9077 42.1027 27.4313 41.9339 29.4961C41.7772 31.5488 41.6566 33.2393 41.6687 33.2513C41.6807 33.2634 42.1751 32.7442 42.7659 32.1042C43.9595 30.8243 46.3226 28.3611 48.5532 26.0911L50 24.6179L49.7589 24.3523C48.8305 23.3018 40.1616 15.3567 34.0969 10.0076L33.789 9.73368Z" fill="black"/>
<path d="M39.9084 24.2074C39.7878 23.8935 34.736 19.4621 31.2877 16.6607C30.5401 16.0449 29.877 15.5499 29.8288 15.5499C29.66 15.5499 27.7671 17.2765 27.7671 17.4214C27.7671 17.506 27.9841 17.6629 28.2373 17.7837C29.4912 18.3391 31.3721 20.259 32.0955 21.6959C32.7466 22.9879 33.0239 24.5334 32.831 25.7892C32.5778 27.3468 32.0955 27.9989 28.1891 31.9714C26.2599 33.9275 23.8365 36.4149 22.8117 37.4896C21.3648 38.9989 20.8585 39.4577 20.6294 39.4577C20.1712 39.4577 19.3152 38.7695 15.1555 35.0505C10.1037 30.5345 8.1987 28.6992 7.96962 28.1196C7.71642 27.4676 7.74054 25.2941 8.04196 20.911C8.21076 18.4599 8.37955 16.3347 8.42778 16.2019C8.47601 16.0811 8.29515 16.214 8.04196 16.5158C7.17386 17.518 5.29298 19.5104 2.64046 22.2513L0 24.9802L0.952498 25.9582C2.86955 27.9143 6.7157 31.5247 10.7668 35.1833C13.0576 37.2481 16.4215 40.3029 18.2421 41.9693L21.5578 45L21.9797 44.4929C24.0776 42.0055 37.7622 26.6706 39.2573 25.1251C39.7155 24.6662 39.9566 24.3161 39.9084 24.2074Z" fill="black"/>
<path d="M24.994 29.0433C27.2913 29.0433 29.1536 27.1782 29.1536 24.8775C29.1536 22.5769 27.2913 20.7118 24.994 20.7118C22.6967 20.7118 20.8343 22.5769 20.8343 24.8775C20.8343 27.1782 22.6967 29.0433 24.994 29.0433Z" fill="black"/>
</svg>
