<svg width="234" height="50" viewBox="0 0 234 50" xmlns="http://www.w3.org/2000/svg">
<g clip-path="url(#clip0_2_627)">
<path d="M42.5742 5.9171C40.1273 3.75782 37.7847 1.69067 37.2652 1.20322C36.436 0.415455 36.0874 -0.00548377 35.7458 5.39459e-05C35.374 0.00608221 35.0105 0.517338 34.0446 1.61073C33.3362 2.42376 32.2056 3.68557 31.2843 4.71376C31.0596 4.96444 30.8474 5.20123 30.6569 5.41425C29.8185 6.32402 28.4985 7.78858 27.4774 8.92135C27.2958 9.12289 27.1236 9.31392 26.9653 9.48946C25.9171 10.6516 22.2862 14.6514 18.8985 18.3643C15.5107 22.0924 12.7155 25.2318 12.6851 25.3526C12.6243 25.579 13.7181 26.6355 15.9969 28.5825C16.7109 29.1863 17.6376 30.0013 18.0629 30.3787C18.4883 30.756 20.3417 32.2804 22.1951 33.7596C24.5802 35.6613 25.6284 36.416 25.7803 36.3254C26.1905 36.099 28.3325 33.9558 28.1958 33.9105C27.4666 33.669 25.8411 32.4917 24.7169 31.3748C23.6079 30.2881 23.2281 29.7749 22.7572 28.824C21.9976 27.2392 21.7697 26.3487 21.7697 24.7941C21.7697 23.1489 22.1495 21.866 23.0154 20.568C23.7294 19.4963 36.7032 6.54626 37.0526 6.54626C37.2653 6.54626 38.9819 7.98012 45.9245 14.0175C50.7099 18.1681 52.6241 19.9492 53.095 20.7038C53.3988 21.2019 53.414 21.3377 53.3077 23.5867C53.2621 24.8847 53.0494 28.0392 52.8368 30.6201C52.6393 33.186 52.4873 35.2991 52.5025 35.3142C52.5177 35.3293 53.1406 34.6803 53.885 33.8803C55.389 32.2804 58.3665 29.2014 61.177 26.3638L63 24.5224L62.6962 24.1904C61.5264 22.8773 50.6036 12.9458 42.9621 6.25949L42.5742 5.9171Z"/>
<path d="M50.2845 24.0093C50.1326 23.6168 43.7673 18.0776 39.4225 14.5759C38.4806 13.8062 37.645 13.1873 37.5843 13.1873C37.3716 13.1873 34.9865 15.3457 34.9865 15.5268C34.9865 15.6325 35.2599 15.8287 35.579 15.9796C37.1589 16.6739 39.5288 19.0737 40.4403 20.8699C41.2607 22.4848 41.6101 24.4168 41.367 25.9865C41.048 27.9335 40.4403 28.7486 35.5182 33.7143C33.0875 36.1594 30.034 39.2686 28.7427 40.6119C26.9197 42.4986 26.2817 43.0722 25.993 43.0722C25.4157 43.0722 24.3371 42.2118 19.096 37.5631C12.7306 31.9182 10.3304 29.624 10.0417 28.8995C9.7227 28.0845 9.75307 25.3677 10.1329 19.8888C10.3456 16.8248 10.5582 14.1684 10.619 14.0024C10.6798 13.8514 10.4519 14.0175 10.1329 14.3948C9.03907 15.6475 6.66916 18.1379 3.32698 21.5641L0 24.9752L1.20015 26.1978C3.61563 28.6429 8.46178 33.1558 13.5662 37.7291C16.4526 40.3101 20.6911 44.1287 22.9851 46.2116L27.1628 50L27.6945 49.3661C30.3378 46.2569 47.5804 27.0883 49.4642 25.1564C50.0415 24.5828 50.3453 24.1451 50.2845 24.0093Z"/>
<path d="M31.4924 30.0541C34.387 30.0541 36.7335 27.7228 36.7335 24.8469C36.7335 21.9711 34.387 19.6397 31.4924 19.6397C28.5978 19.6397 26.2513 21.9711 26.2513 24.8469C26.2513 27.7228 28.5978 30.0541 31.4924 30.0541Z"/>
<path d="M79.536 10.3H84.9L89.004 35.5H85.044L84.324 30.496V30.568H79.824L79.104 35.5H75.432L79.536 10.3ZM83.856 27.148L82.092 14.692H82.02L80.292 27.148H83.856ZM90.9252 10.3H96.7932C98.8332 10.3 100.321 10.78 101.257 11.74C102.193 12.676 102.661 14.128 102.661 16.096V17.644C102.661 20.26 101.797 21.916 100.069 22.612V22.684C101.029 22.972 101.701 23.56 102.085 24.448C102.493 25.336 102.697 26.524 102.697 28.012V32.44C102.697 33.16 102.721 33.748 102.769 34.204C102.817 34.636 102.937 35.068 103.129 35.5H99.0972C98.9532 35.092 98.8572 34.708 98.8092 34.348C98.7612 33.988 98.7372 33.34 98.7372 32.404V27.796C98.7372 26.644 98.5452 25.84 98.1612 25.384C97.8012 24.928 97.1652 24.7 96.2532 24.7H94.8852V35.5H90.9252V10.3ZM96.3252 21.1C97.1172 21.1 97.7052 20.896 98.0892 20.488C98.4972 20.08 98.7012 19.396 98.7012 18.436V16.492C98.7012 15.58 98.5332 14.92 98.1972 14.512C97.8852 14.104 97.3812 13.9 96.6852 13.9H94.8852V21.1H96.3252ZM108.47 13.9H104.33V10.3H116.57V13.9H112.43V35.5H108.47V13.9ZM124.253 10.3H135.053V13.9H128.213V20.56H133.649V24.16H128.213V31.9H135.053V35.5H124.253V10.3ZM140.894 22.612L136.538 10.3H140.714L143.378 18.436H143.45L146.186 10.3H149.93L145.574 22.612L150.146 35.5H145.97L143.09 26.716H143.018L140.066 35.5H136.322L140.894 22.612ZM152.027 10.3H157.859C159.827 10.3 161.303 10.828 162.287 11.884C163.271 12.94 163.763 14.488 163.763 16.528V19.012C163.763 21.052 163.271 22.6 162.287 23.656C161.303 24.712 159.827 25.24 157.859 25.24H155.987V35.5H152.027V10.3ZM157.859 21.64C158.507 21.64 158.987 21.46 159.299 21.1C159.635 20.74 159.803 20.128 159.803 19.264V16.276C159.803 15.412 159.635 14.8 159.299 14.44C158.987 14.08 158.507 13.9 157.859 13.9H155.987V21.64H157.859ZM165.914 10.3H169.874V31.9H176.39V35.5H165.914V10.3ZM183.872 35.86C181.928 35.86 180.44 35.308 179.408 34.204C178.376 33.1 177.86 31.54 177.86 29.524V16.276C177.86 14.26 178.376 12.7 179.408 11.596C180.44 10.492 181.928 9.94 183.872 9.94C185.816 9.94 187.304 10.492 188.336 11.596C189.368 12.7 189.884 14.26 189.884 16.276V29.524C189.884 31.54 189.368 33.1 188.336 34.204C187.304 35.308 185.816 35.86 183.872 35.86ZM183.872 32.26C185.24 32.26 185.924 31.432 185.924 29.776V16.024C185.924 14.368 185.24 13.54 183.872 13.54C182.504 13.54 181.82 14.368 181.82 16.024V29.776C181.82 31.432 182.504 32.26 183.872 32.26ZM192.562 10.3H198.43C200.47 10.3 201.958 10.78 202.894 11.74C203.83 12.676 204.298 14.128 204.298 16.096V17.644C204.298 20.26 203.434 21.916 201.706 22.612V22.684C202.666 22.972 203.338 23.56 203.722 24.448C204.13 25.336 204.334 26.524 204.334 28.012V32.44C204.334 33.16 204.358 33.748 204.406 34.204C204.454 34.636 204.574 35.068 204.766 35.5H200.734C200.59 35.092 200.494 34.708 200.446 34.348C200.398 33.988 200.374 33.34 200.374 32.404V27.796C200.374 26.644 200.182 25.84 199.798 25.384C199.438 24.928 198.802 24.7 197.89 24.7H196.522V35.5H192.562V10.3ZM197.962 21.1C198.754 21.1 199.342 20.896 199.726 20.488C200.134 20.08 200.338 19.396 200.338 18.436V16.492C200.338 15.58 200.17 14.92 199.834 14.512C199.522 14.104 199.018 13.9 198.322 13.9H196.522V21.1H197.962ZM207.081 10.3H217.881V13.9H211.041V20.56H216.477V24.16H211.041V31.9H217.881V35.5H207.081V10.3ZM220.16 10.3H226.028C228.068 10.3 229.556 10.78 230.492 11.74C231.428 12.676 231.896 14.128 231.896 16.096V17.644C231.896 20.26 231.032 21.916 229.304 22.612V22.684C230.264 22.972 230.936 23.56 231.32 24.448C231.728 25.336 231.932 26.524 231.932 28.012V32.44C231.932 33.16 231.956 33.748 232.004 34.204C232.052 34.636 232.172 35.068 232.364 35.5H228.332C228.188 35.092 228.092 34.708 228.044 34.348C227.996 33.988 227.972 33.34 227.972 32.404V27.796C227.972 26.644 227.78 25.84 227.396 25.384C227.036 24.928 226.4 24.7 225.488 24.7H224.12V35.5H220.16V10.3ZM225.56 21.1C226.352 21.1 226.94 20.896 227.324 20.488C227.732 20.08 227.936 19.396 227.936 18.436V16.492C227.936 15.58 227.768 14.92 227.432 14.512C227.12 14.104 226.616 13.9 225.92 13.9H224.12V21.1H225.56Z"/>
</g>
<defs>
</defs>
</svg>
